<?xml version="1.0" standalone="no"?>
<!DOCTYPE svg PUBLIC "-//W3C//DTD SVG 20010904//EN"
 "http://www.w3.org/TR/2001/REC-SVG-20010904/DTD/svg10.dtd">
<svg version="1.0" xmlns="http://www.w3.org/2000/svg"
 width="700.000000pt" height="700.000000pt" viewBox="0 0 700.000000 700.000000"
 preserveAspectRatio="xMidYMid meet">
<metadata>
Created by potrace 1.14, written by Peter Selinger 2001-2017
</metadata>
<g transform="translate(0.000000,700.000000) scale(0.100000,-0.100000)"
fill="#000000" stroke="none">
<path d="M4330 5384 l0 -916 -57 50 c-295 255 -748 395 -1223 379 -91 -3 -206
-13 -255 -21 -715 -121 -1294 -613 -1515 -1286 -226 -688 -59 -1437 434 -1948
300 -311 669 -502 1111 -574 123 -20 494 -17 630 5 345 57 591 165 818 360
l57 49 0 -171 0 -171 615 0 615 0 0 2580 0 2580 -615 0 -615 0 0 -916z m-665
-1528 c264 -68 464 -226 571 -452 67 -141 88 -239 88 -424 1 -169 -14 -251
-69 -375 -185 -417 -752 -647 -1230 -498 -301 94 -507 305 -587 603 -19 74
-22 109 -22 265 0 156 3 191 22 265 67 248 219 436 439 544 167 82 295 107
523 102 138 -3 182 -8 265 -30z"/>
</g>
</svg>
